<?xml version="1.0" encoding="utf-8"?>
<!-- Generator: Adobe Illustrator 25.1.0, SVG Export Plug-In . SVG Version: 6.00 Build 0)  -->
<svg version="1.1" id="Layer_1" xmlns="http://www.w3.org/2000/svg" xmlns:xlink="http://www.w3.org/1999/xlink" x="0px" y="0px"
	 viewBox="0 0 637 155.3" style="enable-background:new 0 0 637 155.3;" xml:space="preserve">
<style type="text/css">
	.st0{fill:#FFFFFF;}
	.st1{enable-background:new    ;}
</style>
<g>
	<path id="Path_8502_2_" class="st0" d="M53.8,48H37.4l-8.3,59.1h12.6c6,0,6.1,0,6.9-5.9c0.5-3.2,0.8-6.4,1.2-9.9
		c-3.1,0-5.9,0-8.7,0c-3.3,0-4.1-1.4-2.4-4.3c2.1-3.9,4.3-7.7,6.5-11.6c1.1-2.3,3.6-3.8,6.2-3.6c6,0,12,0,18,0
		c3.2,0,4.3,1.5,3.8,4.7c-1.8,12.7-3.6,25.5-5.4,38.2c-1.1,7.8-5.9,12-13.8,12c-12.5,0-25,0-37.4,0c-7.8,0-11.5-4.6-10.3-12.2
		c1.8-12,3.4-24.1,5.1-36.1c1.8-12.9,3.5-25.8,5.4-38.7c1-6.9,6.2-11.1,13.2-11.1c12.3,0,24.7,0,37,0c6.9,0,10.5,3.9,9.9,10.8
		c-0.4,3.8-1,7.7-1.5,11.5c-0.3,2.6-2.1,4.8-4.6,5.6c-4.9,1.9-9.8,3.8-14.8,5.7c-3,1.2-4.1,0.2-3.6-3C52.7,55.4,53.3,51.8,53.8,48z"
		/>
	<path id="Path_8504_2_" class="st0" d="M299.2,28.4c2.1,0,4.1,0,6.2,0c3.7,0,4.5,0.8,4.1,4.6c-0.7,6-1.6,12-2.5,18.1
		c-1.4,9.8-2.7,19.5-4.1,29.3c-2,13.9-3.9,27.8-5.9,41.7c-0.5,3.4-1.8,4.5-5.2,4.5c-4.3,0-8.5,0-12.8,0c-3,0-4.2-1.3-3.8-4.3
		c1.6-12,3.3-23.9,5-35.9c2.3-16.7,4.7-33.4,7-50.2c1.1-7.7,1.2-7.8,9-7.8L299.2,28.4z"/>
	<path id="Path_8507_2_" class="st0" d="M372.8,28.5c-6.6,0-13.3,0-19.9,0c-6.9,0-13.9,0-20.8,0c-6.3,0-11.5,4.6-12.4,10.8
		c-0.6,4.1-1.2,8.1-1.8,12.2c-3,21.2-6,42.3-8.9,63.5c-1,7.1,2.9,11.6,10.1,11.6c13.3,0,26.7,0,40,0c7.2,0,12.3-4.6,13.3-11.8
		c1.5-11,3-22,4.6-33c2-13.9,4-27.8,5.9-41.7C383.8,32.7,380.1,28.5,372.8,28.5z M359.1,54.4c-2.4,16.9-4.7,33.7-7.1,50.6
		c-0.2,1.2-0.4,2.1-2,2.1c-5.6,0-11.2,0-16.8,0c-0.4-0.1-0.8-0.1-1.1-0.3c0.7-5,1.3-10,2-15c1.4-9.8,2.8-19.5,4.2-29.3
		c0.6-4.4,1.2-8.7,1.9-13.1c0.1-0.6,0.7-1.4,1.3-1.4c6-0.1,12-0.1,18.3-0.1C359.5,50.2,359.4,52.3,359.1,54.4L359.1,54.4z"/>
	<path class="st0" d="M195.8,121.2c-1.6-14.8-3.1-29.7-4.6-44.5c-1.5-14.7-2.9-29.4-4.4-44.1c-0.3-2.9-1.7-4.1-4.7-4.2
		c-2.9,0-5.8,0-8.8,0h-8.1c-4.1,0-5.3,0.9-6.7,4.6c-6.3,16.4-12.6,32.8-18.9,49.2c-3.1,8-6.2,16.1-9.5,24.8c-7.4,0-17.5,0-24.3,0h-6
		c0-0.7,0-1.4,0-2.1c1.1-8.1,2.3-16.2,3.4-24.4c2.3-16.1,4.5-32.2,6.8-48.3c0.4-2.6-0.7-3.9-3.4-3.9c-4.4,0-8.8,0-13.3,0
		c-3.4,0-4.7,1.1-5.2,4.5c-1.4,9.8-2.8,19.7-4.2,29.5c-2.8,19.9-5.6,39.8-8.4,59.8c-0.4,2.9,0.7,4.4,3.7,4.4c15.5,0,31,0,46.4,0
		c0.3,0,1.6,0,1.9,0c4.7,0,9.3,0,14,0c2.6,0.2,4.9-1.4,5.5-3.9c1.5-4.3,2.9-8.7,4.2-13c0.2-1.3,1.4-2.2,2.7-2
		c5.4,0.1,10.7,0.1,16.1,0c1.6,0,2.2,0.5,2.3,2.2c0.1,4.1,0.3,8.2,0.5,12.3c0.2,3.3,1.5,4.5,4.8,4.5c4.4,0,8.8,0,13.3,0
		C195.3,126.6,196.3,125.4,195.8,121.2z M169.3,91L169.3,91c-3.8-0.1-7.5,0-11.7,0c3.9-12,7.5-22.6,11.3-34.2l0.6-2
		c0.2,3.1,0.5,7.3,0.7,10.4c0.4,7.9,0.7,15.8,1.2,23.6C171.4,90.4,171,91,169.3,91z"/>
	<path class="st0" d="M450.8,28.7c-16.3-0.1-32.6-0.1-48.9,0c-2,0-5.3,0-5.8,0.1c-1.2,0.2-2.8,1.5-3.6,2.8c-0.3,0.4-0.5,0.8-0.7,1.2
		c-1.6,3.2-3,6.5-4.1,9.9h7.9c-2.2,16.1-4.5,32.2-6.7,48.2c-1.4,10.3-2.9,20.6-4.3,30.9c-0.5,3.8,0.5,4.9,4.3,4.9
		c4.1,0,8.2,0,12.3,0c3.3,0,4.7-1.3,5.1-4.6c1.4-9.9,2.8-19.8,4.2-29.8c0.1-0.6,0.3-1.1,0.8-1.5c1.9-0.8,4.1,0,4.9,1.9
		c4.1,10.1,8.2,20.1,12.3,30.2c0.7,2.3,2.8,3.8,5.2,3.7c5,0.1,10,0.1,14.9,0c2.6,0,3.5-1.6,2.5-4c-1.8-4.6-3.7-9.2-5.6-13.8
		c-2.4-5.9-4.8-11.8-7.3-18.1c0.9-0.1,1.5-0.2,2-0.2c7.7-0.2,12.4-4.6,13.4-12.2c1-8.4,2.3-16.7,3.5-25.1c0.7-5,1.6-10,2-15
		C459.6,33,456,28.7,450.8,28.7z M436,54.8c-0.6,4.6-1.3,9.2-1.9,13.8c-0.2,1.9-0.9,2.7-3,2.7c-5.7-0.1-11.5-0.1-17.6-0.1
		c0.5-3.5,0.9-6.6,1.3-9.8c0.6-4,1.1-7.9,1.8-11.9c0.1-0.6,0.7-1.4,1.1-1.5c6.3-0.1,12.6-0.1,19.1-0.1
		C436.5,50.5,436.3,52.7,436,54.8L436,54.8z"/>
	<path class="st0" d="M267.5,28.5c-1.4,0-2.8,0-4.3,0c-13.6,0-27.3,0-40.9,0c-1.3,0-7-0.1-7.6,0.1c-1.2,0.1-3.1,1.6-4,3.1
		c-0.3,0.4-0.5,0.9-0.8,1.4c-1.7,3.5-3.2,7.1-4.5,10.8h8.1l-5,35.3c-2,14.2-3.9,28.4-6,42.7c-0.5,3.5,0.5,4.9,4.1,4.9
		c7.7,0,15.5,0,23.2,0c7.8,0,15.6,0,23.5,0c6.1,0,11.3-4.5,12.2-10.5c0.6-3.9,1.2-7.8,1.8-11.7c2.3-16.8,4.7-33.6,7-50.4
		c0.7-5.3,1.6-10.6,2.1-16C277,32.4,273.2,28.6,267.5,28.5z M252.2,58.2L252.2,58.2c-1.4,9.8-2.8,19.5-4.2,29.3
		c-0.8,5.9-1.6,11.7-2.6,17.6c-0.1,0.8-1.1,2-1.7,2c-5.6,0.2-11.2,0.1-17.2,0.1c0.6-4.3,1.1-8.2,1.6-12.1c1.4-9.6,2.7-19.2,4.1-28.8
		c0.8-5.5,1.5-10.9,2.4-16.4c0.1-0.7,0.4-1.8,1.3-1.8c5.7-0.1,11.5-0.1,17.6-0.1C253.1,51.5,252.7,54.9,252.2,58.2z"/>
	<path id="Path_8814_4_" class="st0" d="M20.5,19.3h438c2.2-0.1,4-1.7,4.2-3.8L464.1,5c0.4-2.3-1.2-4.5-3.7-4.9
		c-0.2,0-0.4,0-0.6-0.1H22.4c-2.1,0.1-3.9,1.6-4.2,3.6l-2,10.5c-0.5,2.3,1,4.6,3.5,5.1C20,19.2,20.2,19.3,20.5,19.3z"/>
	<path id="Path_8814_1_" class="st0" d="M4.3,155.3h438c2.2-0.1,4-1.7,4.2-3.8L448,141c0.4-2.3-1.2-4.5-3.7-4.9
		c-0.2,0-0.4,0-0.6-0.1H6.2c-2.1,0.1-3.9,1.6-4.2,3.6l-2,10.5c-0.5,2.3,1,4.6,3.5,5.1C3.8,155.3,4,155.3,4.3,155.3z"/>
	<g class="st1">
		<path class="st0" d="M486,56V30.5c0-0.3,0.2-0.5,0.5-0.5h7.6c1.1,0,2,0.4,2.7,1.1c0.8,0.7,1.1,1.7,1.1,2.7v18.7
			c0,1.1-0.4,2-1.1,2.7c-0.8,0.7-1.7,1.1-2.7,1.1h-7.6C486.1,56.4,486,56.3,486,56z M494,51.9V34.6c0-0.3-0.1-0.5-0.3-0.7
			c-0.2-0.2-0.4-0.3-0.7-0.3h-3.3v19.2h3.3c0.3,0,0.5-0.1,0.7-0.3C493.9,52.4,494,52.1,494,51.9z"/>
		<path class="st0" d="M505.6,30h3c0.3,0,0.5,0.2,0.5,0.5l4.4,25.5c0,0.1,0,0.2,0,0.3s-0.1,0.1-0.1,0.1h-0.1h-3.1
			c-0.2,0-0.4-0.2-0.4-0.5l-0.6-3.5h-4l-0.6,3.5c0,0.1-0.1,0.2-0.1,0.3c-0.1,0.1-0.1,0.1-0.2,0.1h-0.1h-3.1c0,0,0,0-0.1,0l-0.1-0.1
			c-0.1-0.1-0.1-0.2,0-0.3l4.4-25.5c0-0.1,0.1-0.2,0.1-0.3C505.3,30.1,505.4,30,505.6,30L505.6,30z M507.1,38.4l-1.4,10.4h2.8
			L507.1,38.4z"/>
		<path class="st0" d="M515.1,30h11.2c0.3,0,0.5,0.2,0.5,0.5v2.7c0,0.3-0.2,0.5-0.5,0.5h-3.7V56c0,0.3-0.2,0.5-0.5,0.5h-2.9
			c-0.3,0-0.5-0.2-0.5-0.5V33.6H515c-0.3,0-0.5-0.2-0.5-0.5v-2.7C514.7,30.2,514.8,30,515.1,30z"/>
		<path class="st0" d="M532.9,30h3c0.3,0,0.5,0.2,0.5,0.5l4.4,25.5c0,0.1,0,0.2,0,0.3s-0.1,0.1-0.1,0.1h-0.1h-3.1
			c-0.2,0-0.4-0.2-0.4-0.5l-0.6-3.5h-4l-0.6,3.5c0,0.1-0.1,0.2-0.1,0.3c-0.1,0.1-0.1,0.1-0.2,0.1h-0.1h-3.1c0,0,0,0-0.1,0l-0.1-0.1
			c-0.1-0.1-0.1-0.2,0-0.3l4.4-25.5c0-0.1,0.1-0.2,0.1-0.3C532.6,30.1,532.7,30,532.9,30L532.9,30z M534.4,38.4L533,48.8h2.8
			L534.4,38.4z"/>
		<path class="st0" d="M555.7,56V30.5c0-0.3,0.2-0.5,0.5-0.5h7.6c1.1,0,2,0.4,2.7,1.1c0.8,0.7,1.1,1.7,1.1,2.7v18.7
			c0,1.1-0.4,2-1.1,2.7s-1.7,1.1-2.7,1.1h-7.6C555.8,56.4,555.7,56.3,555.7,56z M563.8,51.9V34.6c0-0.3-0.1-0.5-0.3-0.7
			s-0.4-0.3-0.7-0.3h-3.3v19.2h3.3c0.3,0,0.5-0.1,0.7-0.3C563.7,52.4,563.8,52.1,563.8,51.9z"/>
		<path class="st0" d="M571.5,56V30.5c0-0.3,0.2-0.5,0.5-0.5h7.6c1.1,0,2,0.4,2.7,1.1c0.8,0.7,1.1,1.7,1.1,2.7V42
			c0,0.8-0.2,1.5-0.7,2.2c-0.5,0.6-1,1.1-1.7,1.4l2.6,10.4c0,0.1,0,0.2,0,0.3s-0.1,0.1-0.2,0.1h-0.1h-3.1c-0.2,0-0.4-0.2-0.5-0.5
			l-2.6-10.1h-1.9V56c0,0.3-0.2,0.5-0.5,0.5H572C571.7,56.4,571.5,56.3,571.5,56z M579.6,41.4v-6.8c0-0.3-0.1-0.5-0.3-0.7
			s-0.4-0.3-0.7-0.3h-3.3v8.7h3.3c0.3,0,0.5-0.1,0.7-0.3C579.5,41.9,579.6,41.7,579.6,41.4z"/>
		<path class="st0" d="M591.1,30.5V56c0,0.3-0.2,0.5-0.5,0.5h-2.9c-0.3,0-0.5-0.2-0.5-0.5V30.5c0-0.3,0.2-0.5,0.5-0.5h2.9
			C590.9,30,591.1,30.2,591.1,30.5z"/>
		<path class="st0" d="M598.1,30.5l2.6,17.2l2.6-17.2c0-0.1,0.1-0.2,0.1-0.3c0.1-0.1,0.1-0.1,0.2-0.1h0.1h3.1c0,0,0,0,0.1,0l0.1,0.1
			c0.1,0.1,0.1,0.2,0,0.3L602.7,56c0,0.1-0.1,0.2-0.1,0.3s-0.1,0.1-0.2,0.1h-0.1h-3c-0.3,0-0.5-0.2-0.5-0.5l-4.4-25.5
			c0-0.1,0-0.2,0-0.3c0-0.1,0.1-0.1,0.2-0.1h0.1h3.1C597.9,30,598,30.2,598.1,30.5z"/>
		<path class="st0" d="M614,44.3v8.5h6.9c0.3,0,0.5,0.2,0.5,0.5V56c0,0.3-0.2,0.5-0.5,0.5h-10.2c-0.3,0-0.5-0.2-0.5-0.5V30.5
			c0-0.3,0.2-0.5,0.5-0.5h10c0.3,0,0.5,0.2,0.5,0.5v2.7c0,0.3-0.2,0.5-0.5,0.5H614v7.1h5.4c0.3,0,0.5,0.2,0.5,0.5V44
			c0,0.3-0.2,0.5-0.5,0.5H614V44.3z"/>
		<path class="st0" d="M624.9,30.5c0-0.3,0.2-0.5,0.5-0.5h2.8c0.2,0,0.4,0.2,0.5,0.5l4.6,14.2V30.5c0-0.3,0.2-0.5,0.5-0.5h2.9
			c0.3,0,0.5,0.2,0.5,0.5V56c0,0.3-0.2,0.5-0.5,0.5H634c-0.2,0-0.4-0.2-0.5-0.5l-4.7-12.8V56c0,0.3-0.2,0.5-0.5,0.5h-2.9
			c-0.3,0-0.5-0.2-0.5-0.5L624.9,30.5L624.9,30.5z"/>
	</g>
	<g class="st1">
		<path class="st0" d="M486,91V65.5c0-0.3,0.2-0.5,0.5-0.5h7.6c1.1,0,2,0.4,2.7,1.1c0.8,0.7,1.1,1.7,1.1,2.7v18.7
			c0,1.1-0.4,2-1.1,2.7c-0.8,0.7-1.7,1.1-2.7,1.1h-7.6C486.1,91.4,486,91.3,486,91z M494,86.9V69.6c0-0.3-0.1-0.5-0.3-0.7
			c-0.2-0.2-0.4-0.3-0.7-0.3h-3.3v19.2h3.3c0.3,0,0.5-0.1,0.7-0.3C493.9,87.4,494,87.1,494,86.9z"/>
		<path class="st0" d="M505.6,65.5V91c0,0.3-0.2,0.5-0.5,0.5h-2.9c-0.3,0-0.5-0.2-0.5-0.5V65.5c0-0.3,0.2-0.5,0.5-0.5h2.9
			C505.4,65,505.6,65.2,505.6,65.5z"/>
		<path class="st0" d="M521.4,87.7c0,1.1-0.4,2-1.1,2.7s-1.7,1.1-2.7,1.1h-4.2c-1.1,0-2-0.4-2.7-1.1c-0.8-0.7-1.1-1.7-1.1-2.7v-19
			c0-1.1,0.4-2,1.1-2.7c0.8-0.7,1.7-1.1,2.7-1.1h4c1.1,0,2,0.4,2.7,1.1c0.8,0.7,1.1,1.7,1.1,2.7v2.4c0,0.3-0.2,0.5-0.5,0.5h-2.9
			c-0.3,0-0.5-0.2-0.5-0.5v-1.7c0-0.3-0.1-0.5-0.3-0.7s-0.4-0.3-0.7-0.3h-2.2c-0.3,0-0.5,0.1-0.7,0.3c-0.2,0.2-0.3,0.4-0.3,0.7v17.8
			c0,0.3,0.1,0.5,0.3,0.7s0.4,0.3,0.7,0.3h2.4c0.3,0,0.5-0.1,0.7-0.3c0.2-0.2,0.3-0.4,0.3-0.7v-5h-1.7c-0.3,0-0.5-0.2-0.5-0.5V79
			c0-0.3,0.2-0.5,0.5-0.5h5.1c0.3,0,0.5,0.2,0.5,0.5L521.4,87.7L521.4,87.7z"/>
		<path class="st0" d="M528.7,65.5V91c0,0.3-0.2,0.5-0.5,0.5h-2.9c-0.3,0-0.5-0.2-0.5-0.5V65.5c0-0.3,0.2-0.5,0.5-0.5h2.9
			C528.5,65,528.7,65.2,528.7,65.5z"/>
		<path class="st0" d="M532.6,65h11.2c0.3,0,0.5,0.2,0.5,0.5v2.7c0,0.3-0.2,0.5-0.5,0.5h-3.7V91c0,0.3-0.2,0.5-0.5,0.5h-2.9
			c-0.3,0-0.5-0.2-0.5-0.5V68.6h-3.7c-0.3,0-0.5-0.2-0.5-0.5v-2.7C532.2,65.2,532.3,65,532.6,65z"/>
		<path class="st0" d="M550.4,65h3c0.3,0,0.5,0.2,0.5,0.5l4.4,25.5c0,0.1,0,0.2,0,0.3s-0.1,0.1-0.1,0.1H558h-3.1
			c-0.2,0-0.4-0.2-0.4-0.5l-0.6-3.5h-4l-0.6,3.5c0,0.1-0.1,0.2-0.1,0.3c-0.1,0.1-0.1,0.1-0.2,0.1h-0.1h-3.1c0,0,0,0-0.1,0l-0.1-0.1
			c0,0-0.1-0.2,0-0.3l4.4-25.5c0-0.1,0.1-0.2,0.1-0.3C550.1,65.1,550.2,65,550.4,65L550.4,65z M551.9,73.4l-1.4,10.4h2.8L551.9,73.4
			z"/>
		<path class="st0" d="M561.6,91V65.5c0-0.3,0.2-0.5,0.5-0.5h2.9c0.3,0,0.5,0.2,0.5,0.5v22.3h6.9c0.3,0,0.5,0.2,0.5,0.5V91
			c0,0.3-0.2,0.5-0.5,0.5h-10.2C561.8,91.4,561.6,91.3,561.6,91z"/>
	</g>
	<g class="st1">
		<path class="st0" d="M494.3,124.1l-4.6-12.7V126c0,0.3-0.2,0.5-0.5,0.5h-2.9c-0.3,0-0.5-0.2-0.5-0.5v-25.5c0-0.3,0.2-0.5,0.5-0.5
			h2.7c0.3,0,0.5,0.2,0.6,0.5l4.6,12.6l4.6-12.6c0-0.1,0.1-0.2,0.2-0.3c0.1-0.1,0.2-0.1,0.2-0.1h0.1h2.7c0.3,0,0.5,0.2,0.5,0.5V126
			c0,0.3-0.2,0.5-0.5,0.5h-2.9c-0.3,0-0.5-0.2-0.5-0.5v-14.6L494.3,124.1z"/>
		<path class="st0" d="M510.9,100h3c0.3,0,0.5,0.2,0.5,0.5l4.4,25.5c0,0.1,0,0.2,0,0.3s-0.1,0.1-0.1,0.1h-0.1h-3.1
			c-0.2,0-0.4-0.2-0.4-0.5l-0.6-3.5h-4l-0.6,3.5c0,0.1-0.1,0.2-0.1,0.3c-0.1,0.1-0.1,0.1-0.2,0.1h-0.1h-3.1c0,0,0,0-0.1,0l-0.1-0.1
			c0,0-0.1-0.2,0-0.3l4.4-25.5c0-0.1,0.1-0.2,0.1-0.3C510.6,100.1,510.7,100,510.9,100L510.9,100z M512.4,108.4l-1.4,10.4h2.8
			L512.4,108.4z"/>
		<path class="st0" d="M522.1,126v-25.5c0-0.3,0.2-0.5,0.5-0.5h7.6c1.1,0,2,0.4,2.7,1.1c0.8,0.7,1.1,1.7,1.1,2.7v8.1
			c0,0.8-0.2,1.5-0.7,2.2c-0.5,0.6-1,1.1-1.7,1.4l2.6,10.4c0,0.1,0,0.2,0,0.3s-0.1,0.1-0.2,0.1h0h-3.1c-0.2,0-0.4-0.2-0.5-0.5
			l-2.6-10.1h-1.9V126c0,0.3-0.2,0.5-0.5,0.5h-2.9C522.3,126.4,522.1,126.3,522.1,126z M530.2,111.4v-6.8c0-0.3-0.1-0.5-0.3-0.7
			s-0.4-0.3-0.7-0.3h-3.3v8.7h3.3c0.3,0,0.5-0.1,0.7-0.3C530.1,111.9,530.2,111.7,530.2,111.4z"/>
		<path class="st0" d="M541.7,111.4l4.4-10.9c0.1-0.1,0.1-0.2,0.2-0.3c0.1-0.1,0.1-0.1,0.2-0.1h0.1h3.1c0,0,0,0,0.1,0
			c0,0,0.1,0,0.1,0.1c0.1,0.1,0,0.2,0,0.3l-4.6,11.3l4.6,14.2c0,0.2,0,0.3,0,0.3c0,0.1-0.1,0.1-0.1,0.1h-0.1h-3.3
			c-0.2,0-0.4-0.2-0.5-0.5l-2.9-9.1l-1.4,3.4v5.7c0,0.3-0.2,0.5-0.5,0.5h-2.9c-0.3,0-0.5-0.2-0.5-0.5v-25.5c0-0.3,0.2-0.5,0.5-0.5
			h2.9c0.3,0,0.5,0.2,0.5,0.5v11H541.7z"/>
		<path class="st0" d="M556.9,114.3v8.5h6.9c0.3,0,0.5,0.2,0.5,0.5v2.7c0,0.3-0.2,0.5-0.5,0.5h-10.2c-0.3,0-0.5-0.2-0.5-0.5v-25.5
			c0-0.3,0.2-0.5,0.5-0.5h10c0.3,0,0.5,0.2,0.5,0.5v2.7c0,0.3-0.2,0.5-0.5,0.5h-6.7v7.1h5.4c0.3,0,0.5,0.2,0.5,0.5v2.7
			c0,0.3-0.2,0.5-0.5,0.5h-5.4V114.3z"/>
		<path class="st0" d="M567.7,100h11.2c0.3,0,0.5,0.2,0.5,0.5v2.7c0,0.3-0.2,0.5-0.5,0.5h-3.7V126c0,0.3-0.2,0.5-0.5,0.5h-2.9
			c-0.3,0-0.5-0.2-0.5-0.5v-22.3h-3.7c-0.3,0-0.5-0.2-0.5-0.5v-2.7C567.2,100.2,567.4,100,567.7,100z"/>
		<path class="st0" d="M586.6,100.5V126c0,0.3-0.2,0.5-0.5,0.5h-2.9c-0.3,0-0.5-0.2-0.5-0.5v-25.5c0-0.3,0.2-0.5,0.5-0.5h2.9
			C586.5,100,586.6,100.2,586.6,100.5z"/>
		<path class="st0" d="M590.6,100.5c0-0.3,0.2-0.5,0.5-0.5h2.8c0.2,0,0.4,0.2,0.5,0.5l4.6,14.2v-14.2c0-0.3,0.2-0.5,0.5-0.5h2.9
			c0.3,0,0.5,0.2,0.5,0.5V126c0,0.3-0.2,0.5-0.5,0.5h-2.7c-0.2,0-0.4-0.2-0.5-0.5l-4.7-12.8V126c0,0.3-0.2,0.5-0.5,0.5h-2.9
			c-0.3,0-0.5-0.2-0.5-0.5L590.6,100.5L590.6,100.5z"/>
		<path class="st0" d="M618.6,122.7c0,1.1-0.4,2-1.1,2.7c-0.8,0.7-1.7,1.1-2.7,1.1h-4.2c-1.1,0-2-0.4-2.7-1.1s-1.1-1.7-1.1-2.7v-19
			c0-1.1,0.4-2,1.1-2.7c0.8-0.7,1.7-1.1,2.7-1.1h4c1.1,0,2,0.4,2.7,1.1c0.8,0.7,1.1,1.7,1.1,2.7v2.4c0,0.3-0.2,0.5-0.5,0.5H615
			c-0.3,0-0.5-0.2-0.5-0.5v-1.7c0-0.3-0.1-0.5-0.3-0.7s-0.4-0.3-0.7-0.3h-2.2c-0.3,0-0.5,0.1-0.7,0.3c-0.2,0.2-0.3,0.4-0.3,0.7v17.8
			c0,0.3,0.1,0.5,0.3,0.7s0.4,0.3,0.7,0.3h2.4c0.3,0,0.5-0.1,0.7-0.3c0.2-0.2,0.3-0.4,0.3-0.7v-5H613c-0.3,0-0.5-0.2-0.5-0.5V114
			c0-0.3,0.2-0.5,0.5-0.5h5.1c0.3,0,0.5,0.2,0.5,0.5V122.7z"/>
	</g>
</g>
</svg>
